# xmcd
#
# Track frame offsets: 
#        150
#        16306
#        32083
#        63366
#        86963
#
# Disc length: 1597 seconds
#
# Revision: 0
# Processed by: cddbd v1.5.2PL0 Copyright (c) Steve Scherf et al.
# Submitted via: ExactAudioCopy v1.0b3
#
DISCID=39063b05
DTITLE=Justine Earp - Ooo Lalala 2003
DYEAR=1900
DGENRE=
TTITLE0=Ooo Lalala 2003 (Radio Version)
TTITLE1=Ooo Lalala 2003 (S.Child's Blastard Radio Edit)
TTITLE2=Ooo Lalala 2003 (Heller and Ohlen Rmx)
TTITLE3=Ooo Lalala 2003 (Funk'n'Trust Rmx)
TTITLE4=Ooo Lalala 2003 (S.Child's Blastard Club Mix)
EXTD=
EXTT0=
EXTT1=
EXTT2=
EXTT3=
EXTT4=
PLAYORDER=
